<svg version="1.1" id="Layer_1" xmlns="http://www.w3.org/2000/svg" xmlns:xlink="http://www.w3.org/1999/xlink" x="0px" y="0px"
	 width="30px" height="30px" viewBox="0 0 322 316" enable-background="new 0 0 322 316" xml:space="preserve">
<rect x="153" y="12" fill="#5F5F5F" width="17" height="71"/>
<rect x="236" y="149" fill="#5F5F5F" width="71" height="17"/>
<rect x="15" y="149" fill="#5F5F5F" width="71" height="17"/>
<rect x="152" y="232" fill="#5F5F5F" width="17" height="71"/>
<rect x="78" y="199.612" transform="matrix(-0.7071 -0.7071 0.7071 -0.7071 -18.5936 462.5215)" fill="#5F5F5F" width="17" height="70.999"/>
<rect x="232" y="197.612" transform="matrix(0.7071 -0.7071 0.7071 0.7071 -94.3946 238.3359)" fill="#5F5F5F" width="17" height="71"/>
<rect x="231" y="46" transform="matrix(0.7071 0.7071 -0.7071 0.7071 127.7864 -145.4858)" fill="#5F5F5F" width="17" height="71"/>
<rect x="77.001" y="42" transform="matrix(-0.7071 0.7071 -0.7071 -0.7071 200.7592 71.8428)" fill="#5F5F5F" width="17" height="71"/>
</svg>
